#!OML:ASF F:\VICON\USERDATA\INSTALL\rory3\rory3.ASF
:FULLY-SPECIFIED
:DEGREES
11
root 0.35084 17.1145 -13.967500000000008 4.892000000000002 7.307619999999992 3.4434299999999993
lfemur -23.298799999999996 -1.07272 -30.648400000000013
ltibia 46.007400000000004
lfoot -23.3709 -4.602580000000006
ltoes 7.803539999999995
rfemur -21.4119 -1.5155299999999925 19.55510000000001
rtibia 105.03999999999994
rfoot 16.711099999999995 -6.627529999999999
rtoes 16.05549999999999
lowerback -8.881784189112644e-10 1.2152999999999992 -1.4549699999999965
upperback -0.3714100000000008 1.2219900000000008 -1.0797300000000019
thorax -9.78771 0.6249480000000008 -0.6477090000000005
lowerneck -20.4035 -5.840010000000001 -1.9709200000000002
upperneck 13.2895 -8.291509999999999 5.131479999999996
head 7.736440000000001 -3.539649999999999 0.9759039999999997
lclavicle -2.1866299999999994e-15 1.232459999999998e-14
lhumerus -51.9321 -6.84364 98.9336
lradius 108.96699999999998
lwrist 48.393499999999996
lhand -18.7931 11.014399999999998
lfingers 7.12502
lthumb 7.504840000000001 40.8612
rclavicle -2.1866299999999994e-15 1.232459999999998e-14
rhumerus -46.3308 16.8777 -105.99
rradius 99.9415
rwrist -8.177280000000009
rhand -34.49829999999999 -8.881784189112644e-10
rfingers 7.12502
rthumb -7.660550000000015 18.020700000000005
12
root 0.3842200000000001 17.0755 -12.282400000000013 5.540170000000002 5.46702 4.218389999999995
lfemur -16.7258 -1.0770099999999987 -31.371200000000016
ltibia 43.88979999999999
lfoot -25.52290000000001 -1.8140700000000063
ltoes 1.6621699999999926
rfemur -35.779399999999995 -4.98166 16.57029999999999
rtibia 112.12999999999994
rfoot 14.507599999999993 -7.943279999999996
rtoes 14.14180000000002
lowerback -8.881784189112644e-10 0.7848349999999993 -2.9523100000000104
upperback -0.07668390000000214 0.3198659999999998 -1.025640000000001
thorax -10.1608 0.2727029999999999 0.4760939999999997
lowerneck -21.872 -5.442300000000002 -2.06193
upperneck 12.449699999999996 -7.6838900000000026 5.28857
head 7.68843 -3.23051 1.099170000000001
lclavicle 1.2473700000000034e-14 -1.2920999999999986e-14
lhumerus -43.270799999999994 -7.341619999999999 99.2682
lradius 109.191
lwrist 47.96020000000001
lhand -16.3424 10.614599999999994
lfingers 7.12502
lthumb 9.869829999999999 40.3633
rclavicle 1.2473700000000034e-14 -1.2920999999999986e-14
rhumerus -49.3926 16.907599999999995 -105.42699999999999
rradius 100.42700000000002
rwrist -9.359080000000013
rhand -33.53299999999999 -8.881784189112644e-10
rfingers 7.12502
rthumb -6.7287300000000085 19.5201
13
root 0.4319749999999999 17.2609 -10.429800000000021 5.725019999999995 2.332519999999999 3.6949499999999977
lfemur -8.080220000000002 0.1780650000000001 -31.053000000000008
ltibia 38.97230000000002
lfoot -22.031199999999973 -0.25174499999999966
ltoes -7.367809999999998
rfemur -46.691799999999965 -2.707340000000007 17.580699999999986
rtibia 109.45499999999998
rfoot 11.934500000000007 -6.327310000000002
rtoes 14.753899999999994
lowerback -8.881784189112644e-10 0.43793600000000005 -3.5982300000000027
upperback -0.385984999999999 -0.24969500000000078 -0.6191199999999989
thorax -10.5742 0.05755460000000029 1.4364300000000034
lowerneck -21.045599999999997 -4.72333 -2.10834
upperneck 12.128400000000001 -6.69683 5.334949999999997
head 7.412769999999999 -2.78279 1.2694699999999992
lclavicle -3.8763e-15 2.156809999999996e-14
lhumerus -39.203899999999976 -6.9207 98.9392
lradius 113.329
lwrist 50.6684
lhand -15.784499999999994 8.861100000000004
lfingers 7.12502
lthumb 10.408 38.583499999999994
rclavicle -3.8763e-15 2.156809999999996e-14
rhumerus -54.348400000000005 17.2299 -105.572
rradius 103.656
rwrist -10.65900000000001
rhand -31.712199999999996 -8.881784189112644e-10
rfingers 7.12502
rthumb -4.970889999999993 19.7515
14
root 0.48247 17.6967 -8.415420000000015 6.8278099999999995 1.8247600000000004 2.6431400000000047
lfemur -0.221889000000008 -1.206809999999996 -29.67309999999999
ltibia 32.85250000000003
lfoot -12.058299999999992 -5.549299999999991
ltoes -23.01129999999999
rfemur -52.327899999999985 -1.0696100000000093 19.70569999999999
rtibia 98.12529999999997
rfoot 8.042570000000005 -1.6103099999999944
rtoes 2.1032600000000046
lowerback -8.881784189112644e-10 -0.8556470000000012 -2.8715899999999968
upperback -1.6916799999999994 -1.7141999999999953 0.09330059999999873
thorax -11.113499999999998 -0.6281100000000015 2.174679999999998
lowerneck -17.3639 -3.96067 -1.9626800000000002
upperneck 12.082999999999997 -5.596399999999999 4.4671400000000006
head 6.71139 -2.3958299999999992 1.1568700000000003
lclavicle 1.7443399999999993e-14 2.8823799999999997e-15
lhumerus -38.90889999999998 -7.6236999999999995 98.1802
lradius 118.01399999999998
lwrist 54.65479999999999
lhand -15.253 7.330550000000001
lfingers 7.12502
lthumb 10.920699999999998 37.0266
rclavicle 1.7443399999999993e-14 2.8823799999999997e-15
rhumerus -60.14510000000001 15.7118 -104.86
rradius 107.041
rwrist -11.997800000000002
rhand -30.083199999999998 -8.881784189112644e-10
rfingers 7.12502
rthumb -3.3977699999999924 21.4503
15
root 0.5347990000000001 18.2018 -6.301139999999989 7.144799999999995 -0.9541329999999955 1.1870599999999976
lfemur 7.448319999999963 -0.18523299999999948 -28.127100000000006
ltibia 25.454599999999957
lfoot 8.441550000000008 -12.9141
ltoes -27.182399999999976
rfemur -53.196299999999965 3.17007 21.437600000000003
rtibia 80.97299999999998
rfoot 4.74594 1.9588800000000113
rtoes 1.6504199999999947
lowerback -8.881784189112644e-10 -1.1148999999999984 -1.9522900000000056
upperback -1.20051 -1.7665899999999979 0.7617590000000003
thorax -9.70688 -0.7183329999999979 2.338399999999997
lowerneck -20.7365 -3.579929999999999 -1.7092899999999995
upperneck 14.1441 -5.03777 3.55713
head 7.90203 -2.121849999999999 0.8243349999999999
lclavicle -2.5369899999999993e-14 -5.565970000000014e-15
lhumerus -36.237600000000015 -10.138599999999997 96.6655
lradius 120.65399999999997
lwrist 53.47650000000001
lhand -16.208899999999996 7.725729999999998
lfingers 7.12502
lthumb 9.99858 37.4682
rclavicle -2.5369899999999993e-14 -5.565970000000014e-15
rhumerus -61.62770000000003 14.183300000000001 -102.866
rradius 107.974
rwrist -12.031399999999994
rhand -30.55979999999999 -8.881784189112644e-10
rfingers 7.12502
rthumb -3.8580199999999967 20.9215
16
root 0.577285 18.5454 -4.163660000000005 7.042629999999994 -3.413809999999998 -0.26319799999999927
lfemur 13.527799999999957 -1.1827300000000003 -27.249200000000002
ltibia 20.959900000000033
lfoot 24.94440000000004 -14.1649
ltoes -11.041599999999995
rfemur -50.62010000000001 6.436170000000006 23.00819999999999
rtibia 61.1346
rfoot 4.57846 3.004670000000006
rtoes -7.4080699999999915
lowerback -8.881784189112644e-10 -1.2713999999999974 -0.9819860000000025
upperback -1.4967099999999989 -1.742890000000003 1.2968200000000005
thorax -9.56594 -0.743573 2.3408999999999978
lowerneck -19.8636 -3.2196400000000023 -1.6614399999999998
upperneck 14.7065 -4.5377699999999965 3.26423
head 7.91979 -1.9162699999999995 0.7917480000000002
lclavicle 2.4376000000000022e-14 -2.3854199999999967e-14
lhumerus -36.76729999999998 -11.87760000000001 95.4081
lradius 121.761
lwrist 49.46960000000001
lhand -15.887199999999996 7.525129999999998
lfingers 7.12502
lthumb 10.309000000000003 37.2525
rclavicle 2.4376000000000022e-14 -2.3854199999999967e-14
rhumerus -64.15150000000003 11.944000000000004 -101.14
rradius 108.412
rwrist -11.604900000000008
rhand -29.1436 -8.881784189112644e-10
rfingers 7.12502
rthumb -2.490369999999995 20.2936
17
root 0.6092959999999998 18.7221 -2.0984400000000187 7.138870000000003 -3.685150000000009 0.17997200000000158
lfemur 16.04649999999994 -3.72858999999999 -28.3679
ltibia 23.626000000000033
lfoot 28.31510000000007 -15.873899999999992
ltoes -14.768599999999996
rfemur -46.549400000000055 6.183540000000005 23.193600000000004
rtibia 41.415800000000004
rfoot 6.009739999999999 2.976310000000008
rtoes -12.73159999999999
lowerback -8.881784189112644e-10 -1.8763199999999993 -1.5583699999999998
upperback -1.699260000000001 -2.63453 1.4437199999999994
thorax -9.54003 -1.1357400000000015 3.012899999999997
lowerneck -20.466 -3.157569999999997 -1.9352799999999997
upperneck 15.4273 -4.370699999999998 3.1538200000000005
head 8.26358 -1.8492499999999987 0.8101599999999997
lclavicle -5.603239999999999e-14 2.8028600000000036e-14
lhumerus -37.52630000000002 -13.2654 95.3187
lradius 122.02299999999998
lwrist 46.7968
lhand -16.611800000000002 5.911600000000001
lfingers 7.12502
lthumb 9.6099 35.6724
rclavicle -5.603239999999999e-14 2.8028600000000036e-14
rhumerus -66.00649999999999 10.404999999999998 -99.6409
rradius 109.564
rwrist -10.905099999999987
rhand -30.77279999999999 -8.881784189112644e-10
rfingers 7.12502
rthumb -4.063710000000003 21.4964
18
root 0.6432340000000003 18.6685 -0.07071150000000426 6.051909999999998 -4.106719999999986 1.9702899999999968
lfemur 16.908499999999986 -5.600929999999991 -30.79230000000001
ltibia 30.83949999999997
lfoot 27.99809999999997 -26.09660000000001
ltoes -17.877200000000016
rfemur -42.24800000000002 5.336980000000002 22.51340000000001
rtibia 29.79270000000008
rfoot 4.64673 -0.46224399999999655
rtoes -17.491200000000003
lowerback -8.881784189112644e-10 -2.0284100000000054 -3.059690000000008
upperback -1.30257 -3.160220000000005 0.8609960000000001
thorax -9.33879 -1.3348499999999963 3.358480000000005
lowerneck -20.5654 -3.141240000000002 -2.18133
upperneck 14.8372 -4.293700000000004 3.35932
head 8.09003 -1.8109799999999976 0.9298799999999998
lclavicle -4.368290000000005e-14 1.928209999999999e-14
lhumerus -38.69470000000001 -13.921000000000012 95.9224
lradius 121.554
lwrist 46.8182
lhand -17.1701 5.343440000000001
lfingers 7.12502
lthumb 9.071209999999999 35.1284
rclavicle -4.368290000000005e-14 1.928209999999999e-14
rhumerus -65.70890000000003 8.33784999999999 -98.9832
rradius 109.664
rwrist -10.162800000000008
rhand -31.827499999999993 -8.881784189112644e-10
rfingers 7.12502
rthumb -5.082160000000008 21.932800000000004
19
root 0.6938219999999997 18.4383 1.9294099999999932 5.119429999999999 -4.18366999999999 1.3789900000000013
lfemur 12.753599999999967 -5.538890000000009 -29.426699999999997
ltibia 45.97120000000001
lfoot 27.651499999999935 -28.26920000000003
ltoes -9.09078
rfemur -39.00809999999998 4.281180000000003 24.721200000000003
rtibia 28.953499999999913
rfoot 5.0021 -1.303989999999998
rtoes -19.478099999999998
lowerback -8.881784189112644e-10 -2.093550000000002 -1.8806900000000002
upperback -0.924812 -3.0288600000000043 0.976803
thorax -9.18427 -1.3348599999999977 2.7936099999999975
lowerneck -20.3633 -3.3645800000000015 -2.30632
upperneck 14.194100000000002 -4.423669999999997 2.746529999999999
head 7.830120000000001 -1.9514400000000007 0.7340570000000001
lclavicle -2.3556000000000032e-14 1.98785e-15
lhumerus -39.7208 -12.898100000000003 96.803
lradius 118.33599999999998
lwrist 46.4197
lhand -17.897 5.30753
lfingers 7.12502
lthumb 8.36974 35.1217
rclavicle -2.3556000000000032e-14 1.98785e-15
rhumerus -63.533599999999964 6.803349999999984 -98.1144
rradius 108.148
rwrist -11.0986
rhand -30.112599999999997 -8.881784189112644e-10
rfingers 7.12502
rthumb -3.4261899999999947 21.2459
